# xmcd
#
# Track frame offsets: 
#        150
#        8804
#        22232
#        33043
#        43320
#        51276
#        60455
#        74243
#        87404
#        96923
#        108354
#        119904
#        130230
#        140263
#        155483
#        168301
#        180150
#        194332
#        206595
#        217980
#        230228
#        242179
#        255338
#        267867
#
# Disc length: 3813 seconds
#
# Revision: 5
# Processed by: cddbd v1.5.2PL0 Copyright (c) Steve Scherf et al.
# Submitted via: ExactAudioCopy v1.1
#
DISCID=620ee318
DTITLE=Little Milton - Welcome to The Club - The Essential Chess Recor
DTITLE=dings - Disc 1
DYEAR=1994
DGENRE=Blues
TTITLE0=She Put A Spell On Me (mono)
TTITLE1=Sneaking Around (mono)
TTITLE2=I'm Coming Home (mono)
TTITLE3=Lonely No More (mono)
TTITLE4=Someone To Love (mono)
TTITLE5=I Need Somebody (mono)
TTITLE6=My Song (mono)
TTITLE7=Never Too Old (mono)
TTITLE8=I Wonder Why (mono)
TTITLE9=So Mean To Me (mono)
TTITLE10=Losing Hand (mono)
TTITLE11=Ain't No Big Deal On You (stereo)
TTITLE12=Meddlin' (mono)
TTITLE13=Blind Man (stereo)
TTITLE14=Stand By Me (stereo)
TTITLE15=Sacrifice (stereo)
TTITLE16=Blues In The Night (stereo)
TTITLE17=You're Welcome To The Club (stereo)
TTITLE18=Can't Hold Back The Tears (stereo)
TTITLE19=Country Style (stereo)
TTITLE20=We're Gonna Make It (stereo)
TTITLE21=Who's Cheating Who (stereo)
TTITLE22=Without My Sweet Baby (stereo)
TTITLE23=Feel So Bad (stereo)
EXTD=
EXTT0=
EXTT1=
EXTT2=
EXTT3=
EXTT4=
EXTT5=
EXTT6=
EXTT7=
EXTT8=
EXTT9=
EXTT10=
EXTT11=
EXTT12=
EXTT13=
EXTT14=
EXTT15=
EXTT16=
EXTT17=
EXTT18=
EXTT19=
EXTT20=
EXTT21=
EXTT22=
EXTT23=
PLAYORDER=
